<mxfile host="Electron" modified="2023-10-09T03:03:39.160Z" agent="5.0 (Windows NT 10.0; Win64; x64) AppleWebKit/537.36 (KHTML, like Gecko) draw.io/20.3.0 Chrome/104.0.5112.114 Electron/20.1.3 Safari/537.36" etag="bTPA-rlZa6ZNCLyRHNRA" compressed="false" version="20.3.0" type="device">
  <diagram name="PF006A" id="1CP9VX86ncTdAmcYDIcw">
    <mxGraphModel dx="782" dy="531" grid="1" gridSize="2" guides="1" tooltips="1" connect="1" arrows="1" fold="1" page="1" pageScale="1" pageWidth="1169" pageHeight="827" math="0" shadow="0">
      <root>
        <mxCell id="22vkG-h5v2N9dKBLQ-ZE-0" />
        <mxCell id="22vkG-h5v2N9dKBLQ-ZE-135" value="Label" style="" parent="22vkG-h5v2N9dKBLQ-ZE-0" />
        <object label="Symbol" Width="8" Height="8" UoM="mm" id="22vkG-h5v2N9dKBLQ-ZE-138">
          <mxCell style="" parent="22vkG-h5v2N9dKBLQ-ZE-0" />
        </object>
        <mxCell id="62EyCnkn3dpZPGl7S5z1-1" value="" style="whiteSpace=wrap;html=1;aspect=fixed;fillColor=none;" parent="22vkG-h5v2N9dKBLQ-ZE-138" vertex="1">
          <mxGeometry x="256" y="96" width="126" height="126" as="geometry" />
        </mxCell>
        <mxCell id="62EyCnkn3dpZPGl7S5z1-14" value="" style="endArrow=none;html=1;rounded=0;fontSize=14;entryX=0.63;entryY=0.002;entryDx=0;entryDy=0;entryPerimeter=0;exitX=0.63;exitY=0.889;exitDx=0;exitDy=0;exitPerimeter=0;" parent="22vkG-h5v2N9dKBLQ-ZE-138" edge="1">
          <mxGeometry width="50" height="50" relative="1" as="geometry">
            <mxPoint x="335.38" y="208.014" as="sourcePoint" />
            <mxPoint x="335.38" y="96.25200000000001" as="targetPoint" />
          </mxGeometry>
        </mxCell>
        <mxCell id="62EyCnkn3dpZPGl7S5z1-16" value="" style="endArrow=none;html=1;rounded=0;fontSize=14;exitX=0.381;exitY=0.889;exitDx=0;exitDy=0;exitPerimeter=0;" parent="22vkG-h5v2N9dKBLQ-ZE-138" source="62EyCnkn3dpZPGl7S5z1-1" edge="1">
          <mxGeometry width="50" height="50" relative="1" as="geometry">
            <mxPoint x="288" y="224" as="sourcePoint" />
            <mxPoint x="336" y="208" as="targetPoint" />
          </mxGeometry>
        </mxCell>
        <mxCell id="62EyCnkn3dpZPGl7S5z1-17" value="" style="endArrow=none;html=1;rounded=0;fontSize=14;exitX=0.381;exitY=0.889;exitDx=0;exitDy=0;exitPerimeter=0;" parent="22vkG-h5v2N9dKBLQ-ZE-138" edge="1">
          <mxGeometry width="50" height="50" relative="1" as="geometry">
            <mxPoint x="304.006" y="176.014" as="sourcePoint" />
            <mxPoint x="336.0000000000001" y="176" as="targetPoint" />
          </mxGeometry>
        </mxCell>
        <mxCell id="62EyCnkn3dpZPGl7S5z1-18" value="" style="endArrow=none;html=1;rounded=0;fontSize=14;exitX=0.381;exitY=0.889;exitDx=0;exitDy=0;exitPerimeter=0;" parent="22vkG-h5v2N9dKBLQ-ZE-138" edge="1">
          <mxGeometry width="50" height="50" relative="1" as="geometry">
            <mxPoint x="304.006" y="144.014" as="sourcePoint" />
            <mxPoint x="336.0000000000001" y="144" as="targetPoint" />
          </mxGeometry>
        </mxCell>
        <mxCell id="62EyCnkn3dpZPGl7S5z1-19" value="" style="endArrow=none;html=1;rounded=0;fontSize=14;exitX=0.381;exitY=0.889;exitDx=0;exitDy=0;exitPerimeter=0;" parent="22vkG-h5v2N9dKBLQ-ZE-138" edge="1">
          <mxGeometry width="50" height="50" relative="1" as="geometry">
            <mxPoint x="304.006" y="112.01400000000001" as="sourcePoint" />
            <mxPoint x="336.0000000000001" y="112" as="targetPoint" />
          </mxGeometry>
        </mxCell>
        <mxCell id="22vkG-h5v2N9dKBLQ-ZE-124" value="Connection" style="locked=1;" parent="22vkG-h5v2N9dKBLQ-ZE-0" />
        <object label="Connection" PipingConnector="Y" LabelConnector="N" SignalConnector="N" Direction="0" AuxiliaryConnector="N" id="62EyCnkn3dpZPGl7S5z1-5">
          <mxCell style="vsdxID=1407;fillColor=none;gradientColor=none;shape=stencil(rVFbDsIgEDwNnyQU4glqvcfGblsilmZBS28vZGMsxg9j/JvZmX1kR5g2TLCg0CpE8hdcbR8nYY5CaztPSDZmJEwnTDt4wpH8be6ZL1CcBV39vUxI3KdKh1YbswPTEzuBzlmiVGmKau9zUKM+jlJJQrJBko8QrZ+rrQ5oRJnXyMHBWElhRVx25ebnw/5zVvPFWRm83jxY5zilvf4eSy5xpKZ7AA==);strokeColor=#00ff00;strokeWidth=1;points=[[0.5,0.5,0,0,0]];labelBackgroundColor=none;rounded=0;html=1;whiteSpace=wrap;aspect=fixed;noLabel=1;snapToPoint=1;container=0;fontSize=16;" parent="22vkG-h5v2N9dKBLQ-ZE-124" vertex="1">
            <mxGeometry x="376" y="154" width="12" height="12" as="geometry" />
          </mxCell>
        </object>
        <object label="Connection" PipingConnector="Y" LabelConnector="N" SignalConnector="N" Direction="180" AuxiliaryConnector="N" id="62EyCnkn3dpZPGl7S5z1-6">
          <mxCell style="vsdxID=1407;fillColor=none;gradientColor=none;shape=stencil(rVFbDsIgEDwNnyQU4glqvcfGblsilmZBS28vZGMsxg9j/JvZmX1kR5g2TLCg0CpE8hdcbR8nYY5CaztPSDZmJEwnTDt4wpH8be6ZL1CcBV39vUxI3KdKh1YbswPTEzuBzlmiVGmKau9zUKM+jlJJQrJBko8QrZ+rrQ5oRJnXyMHBWElhRVx25ebnw/5zVvPFWRm83jxY5zilvf4eSy5xpKZ7AA==);strokeColor=#00ff00;strokeWidth=1;points=[[0.5,0.5,0,0,0]];labelBackgroundColor=none;rounded=0;html=1;whiteSpace=wrap;aspect=fixed;noLabel=1;snapToPoint=1;container=0;fontSize=16;" parent="22vkG-h5v2N9dKBLQ-ZE-124" vertex="1">
            <mxGeometry x="250" y="154" width="12" height="12" as="geometry" />
          </mxCell>
        </object>
        <mxCell id="22vkG-h5v2N9dKBLQ-ZE-136" value="Origo" style="locked=1;" parent="22vkG-h5v2N9dKBLQ-ZE-0" />
        <object label="origo" id="62EyCnkn3dpZPGl7S5z1-4">
          <mxCell style="vsdxID=1407;fillColor=none;gradientColor=none;shape=stencil(rVFbDsIgEDwNnyQU4glqvcfGblsilmZBS28vZGMsxg9j/JvZmX1kR5g2TLCg0CpE8hdcbR8nYY5CaztPSDZmJEwnTDt4wpH8be6ZL1CcBV39vUxI3KdKh1YbswPTEzuBzlmiVGmKau9zUKM+jlJJQrJBko8QrZ+rrQ5oRJnXyMHBWElhRVx25ebnw/5zVvPFWRm83jxY5zilvf4eSy5xpKZ7AA==);strokeColor=#ff0000;strokeWidth=1;points=[[0.5,0.5,0,0,0]];labelBackgroundColor=none;rounded=0;html=1;whiteSpace=wrap;aspect=fixed;noLabel=1;snapToPoint=1;" parent="22vkG-h5v2N9dKBLQ-ZE-136" vertex="1">
            <mxGeometry x="316" y="156" width="8" height="8" as="geometry" />
          </mxCell>
        </object>
      </root>
    </mxGraphModel>
  </diagram>
</mxfile>
